<mxfile host="app.diagrams.net" agent="Mozilla/5.0 (X11; Ubuntu; Linux x86_64; rv:138.0) Gecko/20100101 Firefox/138.0" version="26.2.14">
  <diagram name="Page-1" id="faWid_wuvMAU5EGSrJbd">
    <mxGraphModel dx="815" dy="456" grid="1" gridSize="10" guides="1" tooltips="1" connect="1" arrows="1" fold="1" page="1" pageScale="1" pageWidth="850" pageHeight="1100" math="0" shadow="0">
      <root>
        <mxCell id="0" />
        <mxCell id="1" parent="0" />
        <mxCell id="_nBuZg-c0rEwRVhhds23-1" style="rounded=0;orthogonalLoop=1;jettySize=auto;html=1;exitX=1;exitY=0.5;exitDx=0;exitDy=0;entryX=0;entryY=0.5;entryDx=0;entryDy=0;" edge="1" parent="1" source="_nBuZg-c0rEwRVhhds23-5" target="_nBuZg-c0rEwRVhhds23-28">
          <mxGeometry relative="1" as="geometry" />
        </mxCell>
        <mxCell id="_nBuZg-c0rEwRVhhds23-2" style="rounded=0;orthogonalLoop=1;jettySize=auto;html=1;exitX=1;exitY=0.5;exitDx=0;exitDy=0;entryX=0;entryY=0.5;entryDx=0;entryDy=0;" edge="1" parent="1" source="_nBuZg-c0rEwRVhhds23-5" target="_nBuZg-c0rEwRVhhds23-31">
          <mxGeometry relative="1" as="geometry" />
        </mxCell>
        <mxCell id="_nBuZg-c0rEwRVhhds23-3" style="rounded=0;orthogonalLoop=1;jettySize=auto;html=1;exitX=1;exitY=0.5;exitDx=0;exitDy=0;entryX=0;entryY=0.5;entryDx=0;entryDy=0;" edge="1" parent="1" source="_nBuZg-c0rEwRVhhds23-5" target="_nBuZg-c0rEwRVhhds23-34">
          <mxGeometry relative="1" as="geometry" />
        </mxCell>
        <mxCell id="_nBuZg-c0rEwRVhhds23-4" style="rounded=0;orthogonalLoop=1;jettySize=auto;html=1;exitX=1;exitY=0.5;exitDx=0;exitDy=0;entryX=0;entryY=0.5;entryDx=0;entryDy=0;" edge="1" parent="1" source="_nBuZg-c0rEwRVhhds23-5" target="_nBuZg-c0rEwRVhhds23-37">
          <mxGeometry relative="1" as="geometry" />
        </mxCell>
        <mxCell id="_nBuZg-c0rEwRVhhds23-5" value="" style="ellipse;whiteSpace=wrap;html=1;aspect=fixed;" vertex="1" parent="1">
          <mxGeometry x="160" y="160" width="40" height="40" as="geometry" />
        </mxCell>
        <mxCell id="_nBuZg-c0rEwRVhhds23-7" style="rounded=0;orthogonalLoop=1;jettySize=auto;html=1;exitX=1;exitY=0.5;exitDx=0;exitDy=0;entryX=0;entryY=0.5;entryDx=0;entryDy=0;" edge="1" parent="1" source="_nBuZg-c0rEwRVhhds23-10" target="_nBuZg-c0rEwRVhhds23-31">
          <mxGeometry relative="1" as="geometry" />
        </mxCell>
        <mxCell id="_nBuZg-c0rEwRVhhds23-8" style="rounded=0;orthogonalLoop=1;jettySize=auto;html=1;exitX=1;exitY=0.5;exitDx=0;exitDy=0;entryX=0;entryY=0.5;entryDx=0;entryDy=0;" edge="1" parent="1" source="_nBuZg-c0rEwRVhhds23-10" target="_nBuZg-c0rEwRVhhds23-34">
          <mxGeometry relative="1" as="geometry" />
        </mxCell>
        <mxCell id="_nBuZg-c0rEwRVhhds23-9" style="rounded=0;orthogonalLoop=1;jettySize=auto;html=1;exitX=1;exitY=0.5;exitDx=0;exitDy=0;entryX=0;entryY=0.5;entryDx=0;entryDy=0;" edge="1" parent="1" source="_nBuZg-c0rEwRVhhds23-10" target="_nBuZg-c0rEwRVhhds23-37">
          <mxGeometry relative="1" as="geometry" />
        </mxCell>
        <mxCell id="_nBuZg-c0rEwRVhhds23-54" style="rounded=0;orthogonalLoop=1;jettySize=auto;html=1;exitX=1;exitY=0.5;exitDx=0;exitDy=0;entryX=0;entryY=0.5;entryDx=0;entryDy=0;" edge="1" parent="1" source="_nBuZg-c0rEwRVhhds23-10" target="_nBuZg-c0rEwRVhhds23-28">
          <mxGeometry relative="1" as="geometry" />
        </mxCell>
        <mxCell id="_nBuZg-c0rEwRVhhds23-10" value="" style="ellipse;whiteSpace=wrap;html=1;aspect=fixed;" vertex="1" parent="1">
          <mxGeometry x="160" y="210" width="40" height="40" as="geometry" />
        </mxCell>
        <mxCell id="_nBuZg-c0rEwRVhhds23-11" style="rounded=0;orthogonalLoop=1;jettySize=auto;html=1;exitX=1;exitY=0.5;exitDx=0;exitDy=0;entryX=0;entryY=0.5;entryDx=0;entryDy=0;" edge="1" parent="1" source="_nBuZg-c0rEwRVhhds23-15" target="_nBuZg-c0rEwRVhhds23-28">
          <mxGeometry relative="1" as="geometry" />
        </mxCell>
        <mxCell id="_nBuZg-c0rEwRVhhds23-12" style="rounded=0;orthogonalLoop=1;jettySize=auto;html=1;exitX=1;exitY=0.5;exitDx=0;exitDy=0;entryX=0;entryY=0.5;entryDx=0;entryDy=0;" edge="1" parent="1" source="_nBuZg-c0rEwRVhhds23-15" target="_nBuZg-c0rEwRVhhds23-31">
          <mxGeometry relative="1" as="geometry" />
        </mxCell>
        <mxCell id="_nBuZg-c0rEwRVhhds23-13" style="rounded=0;orthogonalLoop=1;jettySize=auto;html=1;exitX=1;exitY=0.5;exitDx=0;exitDy=0;entryX=0;entryY=0.5;entryDx=0;entryDy=0;" edge="1" parent="1" source="_nBuZg-c0rEwRVhhds23-15" target="_nBuZg-c0rEwRVhhds23-34">
          <mxGeometry relative="1" as="geometry" />
        </mxCell>
        <mxCell id="_nBuZg-c0rEwRVhhds23-14" style="rounded=0;orthogonalLoop=1;jettySize=auto;html=1;exitX=1;exitY=0.5;exitDx=0;exitDy=0;entryX=0;entryY=0.5;entryDx=0;entryDy=0;" edge="1" parent="1" source="_nBuZg-c0rEwRVhhds23-15" target="_nBuZg-c0rEwRVhhds23-37">
          <mxGeometry relative="1" as="geometry" />
        </mxCell>
        <mxCell id="_nBuZg-c0rEwRVhhds23-15" value="" style="ellipse;whiteSpace=wrap;html=1;aspect=fixed;" vertex="1" parent="1">
          <mxGeometry x="160" y="260" width="40" height="40" as="geometry" />
        </mxCell>
        <mxCell id="_nBuZg-c0rEwRVhhds23-16" style="rounded=0;orthogonalLoop=1;jettySize=auto;html=1;exitX=1;exitY=0.5;exitDx=0;exitDy=0;entryX=0;entryY=0.5;entryDx=0;entryDy=0;" edge="1" parent="1" source="_nBuZg-c0rEwRVhhds23-20" target="_nBuZg-c0rEwRVhhds23-28">
          <mxGeometry relative="1" as="geometry" />
        </mxCell>
        <mxCell id="_nBuZg-c0rEwRVhhds23-17" style="rounded=0;orthogonalLoop=1;jettySize=auto;html=1;exitX=1;exitY=0.5;exitDx=0;exitDy=0;entryX=0;entryY=0.5;entryDx=0;entryDy=0;" edge="1" parent="1" source="_nBuZg-c0rEwRVhhds23-20" target="_nBuZg-c0rEwRVhhds23-31">
          <mxGeometry relative="1" as="geometry" />
        </mxCell>
        <mxCell id="_nBuZg-c0rEwRVhhds23-19" style="rounded=0;orthogonalLoop=1;jettySize=auto;html=1;exitX=1;exitY=0.5;exitDx=0;exitDy=0;entryX=0;entryY=0.5;entryDx=0;entryDy=0;" edge="1" parent="1" source="_nBuZg-c0rEwRVhhds23-20" target="_nBuZg-c0rEwRVhhds23-37">
          <mxGeometry relative="1" as="geometry" />
        </mxCell>
        <mxCell id="_nBuZg-c0rEwRVhhds23-53" style="rounded=0;orthogonalLoop=1;jettySize=auto;html=1;exitX=1;exitY=0.5;exitDx=0;exitDy=0;entryX=0;entryY=0.5;entryDx=0;entryDy=0;" edge="1" parent="1" source="_nBuZg-c0rEwRVhhds23-20" target="_nBuZg-c0rEwRVhhds23-34">
          <mxGeometry relative="1" as="geometry" />
        </mxCell>
        <mxCell id="_nBuZg-c0rEwRVhhds23-20" value="" style="ellipse;whiteSpace=wrap;html=1;aspect=fixed;" vertex="1" parent="1">
          <mxGeometry x="160" y="310" width="40" height="40" as="geometry" />
        </mxCell>
        <mxCell id="_nBuZg-c0rEwRVhhds23-21" style="rounded=0;orthogonalLoop=1;jettySize=auto;html=1;exitX=1;exitY=0.5;exitDx=0;exitDy=0;entryX=0;entryY=0.5;entryDx=0;entryDy=0;" edge="1" parent="1" source="_nBuZg-c0rEwRVhhds23-25" target="_nBuZg-c0rEwRVhhds23-28">
          <mxGeometry relative="1" as="geometry" />
        </mxCell>
        <mxCell id="_nBuZg-c0rEwRVhhds23-22" style="rounded=0;orthogonalLoop=1;jettySize=auto;html=1;exitX=1;exitY=0.5;exitDx=0;exitDy=0;entryX=0;entryY=0.5;entryDx=0;entryDy=0;" edge="1" parent="1" source="_nBuZg-c0rEwRVhhds23-25" target="_nBuZg-c0rEwRVhhds23-31">
          <mxGeometry relative="1" as="geometry" />
        </mxCell>
        <mxCell id="_nBuZg-c0rEwRVhhds23-23" style="rounded=0;orthogonalLoop=1;jettySize=auto;html=1;exitX=1;exitY=0.5;exitDx=0;exitDy=0;entryX=0;entryY=0.5;entryDx=0;entryDy=0;" edge="1" parent="1" source="_nBuZg-c0rEwRVhhds23-25" target="_nBuZg-c0rEwRVhhds23-34">
          <mxGeometry relative="1" as="geometry" />
        </mxCell>
        <mxCell id="_nBuZg-c0rEwRVhhds23-24" style="rounded=0;orthogonalLoop=1;jettySize=auto;html=1;exitX=1;exitY=0.5;exitDx=0;exitDy=0;entryX=0;entryY=0.5;entryDx=0;entryDy=0;" edge="1" parent="1" source="_nBuZg-c0rEwRVhhds23-25" target="_nBuZg-c0rEwRVhhds23-37">
          <mxGeometry relative="1" as="geometry" />
        </mxCell>
        <mxCell id="_nBuZg-c0rEwRVhhds23-25" value="" style="ellipse;whiteSpace=wrap;html=1;aspect=fixed;" vertex="1" parent="1">
          <mxGeometry x="160" y="360" width="40" height="40" as="geometry" />
        </mxCell>
        <mxCell id="_nBuZg-c0rEwRVhhds23-26" style="rounded=0;orthogonalLoop=1;jettySize=auto;html=1;exitX=1;exitY=0.5;exitDx=0;exitDy=0;entryX=0;entryY=0.5;entryDx=0;entryDy=0;" edge="1" parent="1" source="_nBuZg-c0rEwRVhhds23-28" target="_nBuZg-c0rEwRVhhds23-38">
          <mxGeometry relative="1" as="geometry" />
        </mxCell>
        <mxCell id="_nBuZg-c0rEwRVhhds23-27" style="rounded=0;orthogonalLoop=1;jettySize=auto;html=1;exitX=1;exitY=0.5;exitDx=0;exitDy=0;entryX=0;entryY=0.5;entryDx=0;entryDy=0;" edge="1" parent="1" source="_nBuZg-c0rEwRVhhds23-28" target="_nBuZg-c0rEwRVhhds23-39">
          <mxGeometry relative="1" as="geometry" />
        </mxCell>
        <mxCell id="_nBuZg-c0rEwRVhhds23-59" style="edgeStyle=orthogonalEdgeStyle;rounded=0;orthogonalLoop=1;jettySize=auto;html=1;exitX=0;exitY=1;exitDx=0;exitDy=0;entryX=0;entryY=0;entryDx=0;entryDy=0;curved=1;strokeColor=#3333FF;strokeWidth=2;" edge="1" parent="1" source="_nBuZg-c0rEwRVhhds23-28" target="_nBuZg-c0rEwRVhhds23-37">
          <mxGeometry relative="1" as="geometry">
            <Array as="points">
              <mxPoint x="290" y="234" />
              <mxPoint x="290" y="356" />
            </Array>
          </mxGeometry>
        </mxCell>
        <mxCell id="_nBuZg-c0rEwRVhhds23-28" value="" style="ellipse;whiteSpace=wrap;html=1;aspect=fixed;" vertex="1" parent="1">
          <mxGeometry x="310" y="200" width="40" height="40" as="geometry" />
        </mxCell>
        <mxCell id="_nBuZg-c0rEwRVhhds23-29" style="edgeStyle=orthogonalEdgeStyle;rounded=0;orthogonalLoop=1;jettySize=auto;html=1;exitX=1;exitY=0.5;exitDx=0;exitDy=0;" edge="1" parent="1" source="_nBuZg-c0rEwRVhhds23-31" target="_nBuZg-c0rEwRVhhds23-38">
          <mxGeometry relative="1" as="geometry" />
        </mxCell>
        <mxCell id="_nBuZg-c0rEwRVhhds23-30" style="rounded=0;orthogonalLoop=1;jettySize=auto;html=1;exitX=1;exitY=0.5;exitDx=0;exitDy=0;entryX=0;entryY=0.5;entryDx=0;entryDy=0;" edge="1" parent="1" source="_nBuZg-c0rEwRVhhds23-31" target="_nBuZg-c0rEwRVhhds23-39">
          <mxGeometry relative="1" as="geometry" />
        </mxCell>
        <mxCell id="_nBuZg-c0rEwRVhhds23-31" value="" style="ellipse;whiteSpace=wrap;html=1;aspect=fixed;" vertex="1" parent="1">
          <mxGeometry x="310" y="250" width="40" height="40" as="geometry" />
        </mxCell>
        <mxCell id="_nBuZg-c0rEwRVhhds23-32" style="rounded=0;orthogonalLoop=1;jettySize=auto;html=1;exitX=1;exitY=0.5;exitDx=0;exitDy=0;entryX=0;entryY=0.5;entryDx=0;entryDy=0;" edge="1" parent="1" source="_nBuZg-c0rEwRVhhds23-34" target="_nBuZg-c0rEwRVhhds23-38">
          <mxGeometry relative="1" as="geometry" />
        </mxCell>
        <mxCell id="_nBuZg-c0rEwRVhhds23-33" style="edgeStyle=orthogonalEdgeStyle;rounded=0;orthogonalLoop=1;jettySize=auto;html=1;exitX=1;exitY=0.5;exitDx=0;exitDy=0;entryX=0;entryY=0.5;entryDx=0;entryDy=0;" edge="1" parent="1" source="_nBuZg-c0rEwRVhhds23-34" target="_nBuZg-c0rEwRVhhds23-39">
          <mxGeometry relative="1" as="geometry">
            <mxPoint x="400" y="320" as="targetPoint" />
          </mxGeometry>
        </mxCell>
        <mxCell id="_nBuZg-c0rEwRVhhds23-58" style="edgeStyle=orthogonalEdgeStyle;rounded=0;orthogonalLoop=1;jettySize=auto;html=1;exitX=1;exitY=0;exitDx=0;exitDy=0;entryX=1;entryY=1;entryDx=0;entryDy=0;curved=1;strokeColor=#3333FF;strokeWidth=2;" edge="1" parent="1" source="_nBuZg-c0rEwRVhhds23-34" target="_nBuZg-c0rEwRVhhds23-28">
          <mxGeometry relative="1" as="geometry">
            <Array as="points">
              <mxPoint x="370" y="306" />
              <mxPoint x="370" y="234" />
            </Array>
          </mxGeometry>
        </mxCell>
        <mxCell id="_nBuZg-c0rEwRVhhds23-34" value="" style="ellipse;whiteSpace=wrap;html=1;aspect=fixed;" vertex="1" parent="1">
          <mxGeometry x="310" y="300" width="40" height="40" as="geometry" />
        </mxCell>
        <mxCell id="_nBuZg-c0rEwRVhhds23-35" style="rounded=0;orthogonalLoop=1;jettySize=auto;html=1;exitX=1;exitY=0.5;exitDx=0;exitDy=0;entryX=0;entryY=0.5;entryDx=0;entryDy=0;" edge="1" parent="1" source="_nBuZg-c0rEwRVhhds23-37" target="_nBuZg-c0rEwRVhhds23-38">
          <mxGeometry relative="1" as="geometry" />
        </mxCell>
        <mxCell id="_nBuZg-c0rEwRVhhds23-36" style="rounded=0;orthogonalLoop=1;jettySize=auto;html=1;exitX=1;exitY=0.5;exitDx=0;exitDy=0;entryX=0;entryY=0.5;entryDx=0;entryDy=0;" edge="1" parent="1" source="_nBuZg-c0rEwRVhhds23-37" target="_nBuZg-c0rEwRVhhds23-39">
          <mxGeometry relative="1" as="geometry" />
        </mxCell>
        <mxCell id="_nBuZg-c0rEwRVhhds23-57" style="edgeStyle=orthogonalEdgeStyle;rounded=0;orthogonalLoop=1;jettySize=auto;html=1;exitX=1;exitY=0;exitDx=0;exitDy=0;entryX=1;entryY=1;entryDx=0;entryDy=0;curved=1;strokeColor=#3333FF;strokeWidth=2;" edge="1" parent="1" source="_nBuZg-c0rEwRVhhds23-37" target="_nBuZg-c0rEwRVhhds23-31">
          <mxGeometry relative="1" as="geometry">
            <Array as="points">
              <mxPoint x="360" y="356" />
              <mxPoint x="360" y="284" />
            </Array>
          </mxGeometry>
        </mxCell>
        <mxCell id="_nBuZg-c0rEwRVhhds23-37" value="" style="ellipse;whiteSpace=wrap;html=1;aspect=fixed;" vertex="1" parent="1">
          <mxGeometry x="310" y="350" width="40" height="40" as="geometry" />
        </mxCell>
        <mxCell id="_nBuZg-c0rEwRVhhds23-56" style="edgeStyle=orthogonalEdgeStyle;rounded=0;orthogonalLoop=1;jettySize=auto;html=1;exitX=0.5;exitY=0;exitDx=0;exitDy=0;entryX=0.5;entryY=0;entryDx=0;entryDy=0;curved=1;strokeColor=#FF3333;strokeWidth=2;" edge="1" parent="1" source="_nBuZg-c0rEwRVhhds23-38" target="_nBuZg-c0rEwRVhhds23-28">
          <mxGeometry relative="1" as="geometry" />
        </mxCell>
        <mxCell id="_nBuZg-c0rEwRVhhds23-38" value="" style="ellipse;whiteSpace=wrap;html=1;aspect=fixed;" vertex="1" parent="1">
          <mxGeometry x="450" y="250" width="40" height="40" as="geometry" />
        </mxCell>
        <mxCell id="_nBuZg-c0rEwRVhhds23-55" style="edgeStyle=orthogonalEdgeStyle;rounded=0;orthogonalLoop=1;jettySize=auto;html=1;exitX=0.5;exitY=1;exitDx=0;exitDy=0;entryX=0.5;entryY=1;entryDx=0;entryDy=0;curved=1;strokeColor=#FF3333;strokeWidth=2;" edge="1" parent="1" source="_nBuZg-c0rEwRVhhds23-39" target="_nBuZg-c0rEwRVhhds23-37">
          <mxGeometry relative="1" as="geometry" />
        </mxCell>
        <mxCell id="_nBuZg-c0rEwRVhhds23-39" value="" style="ellipse;whiteSpace=wrap;html=1;aspect=fixed;" vertex="1" parent="1">
          <mxGeometry x="450" y="300" width="40" height="40" as="geometry" />
        </mxCell>
        <mxCell id="_nBuZg-c0rEwRVhhds23-40" value="" style="endArrow=classic;html=1;rounded=0;" edge="1" parent="1">
          <mxGeometry width="50" height="50" relative="1" as="geometry">
            <mxPoint x="120" y="379.71" as="sourcePoint" />
            <mxPoint x="160" y="379.71" as="targetPoint" />
          </mxGeometry>
        </mxCell>
        <mxCell id="_nBuZg-c0rEwRVhhds23-41" value="" style="endArrow=classic;html=1;rounded=0;" edge="1" parent="1">
          <mxGeometry width="50" height="50" relative="1" as="geometry">
            <mxPoint x="120" y="329.71" as="sourcePoint" />
            <mxPoint x="160" y="329.71" as="targetPoint" />
          </mxGeometry>
        </mxCell>
        <mxCell id="_nBuZg-c0rEwRVhhds23-42" value="" style="endArrow=classic;html=1;rounded=0;" edge="1" parent="1">
          <mxGeometry width="50" height="50" relative="1" as="geometry">
            <mxPoint x="120" y="279.71" as="sourcePoint" />
            <mxPoint x="160" y="279.71" as="targetPoint" />
          </mxGeometry>
        </mxCell>
        <mxCell id="_nBuZg-c0rEwRVhhds23-43" value="" style="endArrow=classic;html=1;rounded=0;" edge="1" parent="1">
          <mxGeometry width="50" height="50" relative="1" as="geometry">
            <mxPoint x="120" y="229.70999999999998" as="sourcePoint" />
            <mxPoint x="160" y="229.70999999999998" as="targetPoint" />
          </mxGeometry>
        </mxCell>
        <mxCell id="_nBuZg-c0rEwRVhhds23-44" value="" style="endArrow=classic;html=1;rounded=0;" edge="1" parent="1">
          <mxGeometry width="50" height="50" relative="1" as="geometry">
            <mxPoint x="120" y="179.70999999999998" as="sourcePoint" />
            <mxPoint x="160" y="179.70999999999998" as="targetPoint" />
          </mxGeometry>
        </mxCell>
        <mxCell id="_nBuZg-c0rEwRVhhds23-45" value="" style="endArrow=classic;html=1;rounded=0;" edge="1" parent="1">
          <mxGeometry width="50" height="50" relative="1" as="geometry">
            <mxPoint x="490" y="319.71" as="sourcePoint" />
            <mxPoint x="530" y="319.71" as="targetPoint" />
          </mxGeometry>
        </mxCell>
        <mxCell id="_nBuZg-c0rEwRVhhds23-46" value="" style="endArrow=classic;html=1;rounded=0;" edge="1" parent="1">
          <mxGeometry width="50" height="50" relative="1" as="geometry">
            <mxPoint x="490" y="269.71" as="sourcePoint" />
            <mxPoint x="530" y="269.71" as="targetPoint" />
          </mxGeometry>
        </mxCell>
      </root>
    </mxGraphModel>
  </diagram>
</mxfile>
